<svg viewBox="0 0 780 420" xmlns="http://www.w3.org/2000/svg" font-family="'Helvetica Neue', Arial, sans-serif">

  <defs>
    <marker id="qs-arrow" markerWidth="8" markerHeight="8" refX="4" refY="4" orient="auto">
      <path d="M0,0 L8,4 L0,8 Z" fill="#607d8b"/>
    </marker>
  </defs>

  <!-- row label -->
  <text x="10" y="60" font-size="13.5" fill="#455a64">Initial array</text>
  <text x="10" y="78" font-size="12" fill="#78909c">(median of 3)</text>

  <g font-family="'SFMono-Regular', Menlo, Consolas, monospace" font-size="16" text-anchor="middle">
    <!-- Row 1: initial array, first/middle/last highlighted for median-of-three -->
    <g fill="#ffffff">
      <rect x="115" y="34" width="70" height="56" rx="6" stroke="#6a1b9a" stroke-width="2.5" stroke-dasharray="5,3"/>
      <rect x="195" y="34" width="70" height="56" rx="6" stroke="#455a64" stroke-width="1.5"/>
      <rect x="275" y="34" width="70" height="56" rx="6" stroke="#455a64" stroke-width="1.5"/>
      <rect x="355" y="34" width="70" height="56" rx="6" stroke="#6a1b9a" stroke-width="2.5" stroke-dasharray="5,3"/>
      <rect x="435" y="34" width="70" height="56" rx="6" stroke="#455a64" stroke-width="1.5"/>
      <rect x="515" y="34" width="70" height="56" rx="6" stroke="#455a64" stroke-width="1.5"/>
      <rect x="595" y="34" width="70" height="56" rx="6" stroke="#6a1b9a" stroke-width="2.5" stroke-dasharray="5,3"/>
    </g>
    <g fill="#263238">
      <text x="150" y="68">5</text>
      <text x="230" y="68">3</text>
      <text x="310" y="68">8</text>
      <text x="390" y="68">1</text>
      <text x="470" y="68">9</text>
      <text x="550" y="68">2</text>
      <text x="630" y="68">7</text>
    </g>
    <g font-family="'Helvetica Neue', Arial, sans-serif" font-size="11.5" fill="#8e24aa">
      <text x="150" y="106">first</text>
      <text x="390" y="106">middle</text>
      <text x="630" y="106">last</text>
    </g>
  </g>

  <text x="390" y="128" text-anchor="middle" font-size="13" fill="#8e24aa">median(5, 1, 7) = 5  &#8594;  pivot</text>

  <!-- Row 2: partitioned array -->
  <text x="10" y="182" font-size="13.5" fill="#455a64">Partitioned</text>
  <text x="10" y="200" font-size="12" fill="#78909c">around pivot</text>

  <g font-family="'SFMono-Regular', Menlo, Consolas, monospace" font-size="16" text-anchor="middle">
    <g>
      <rect x="115" y="156" width="70" height="56" rx="6" fill="#bbdefb" stroke="#1565c0" stroke-width="2"/>
      <rect x="195" y="156" width="70" height="56" rx="6" fill="#bbdefb" stroke="#1565c0" stroke-width="2"/>
      <rect x="275" y="156" width="70" height="56" rx="6" fill="#bbdefb" stroke="#1565c0" stroke-width="2"/>
      <rect x="355" y="156" width="70" height="56" rx="6" fill="#ffe0b2" stroke="#ef6c00" stroke-width="2.5"/>
      <rect x="435" y="156" width="70" height="56" rx="6" fill="#c8e6c9" stroke="#2e7d32" stroke-width="2"/>
      <rect x="515" y="156" width="70" height="56" rx="6" fill="#c8e6c9" stroke="#2e7d32" stroke-width="2"/>
      <rect x="595" y="156" width="70" height="56" rx="6" fill="#c8e6c9" stroke="#2e7d32" stroke-width="2"/>
    </g>
    <g fill="#263238">
      <text x="150" y="190">1</text>
      <text x="230" y="190">3</text>
      <text x="310" y="190">2</text>
      <text x="390" y="190">5</text>
      <text x="470" y="190">9</text>
      <text x="550" y="190">8</text>
      <text x="630" y="190">7</text>
    </g>
  </g>
  <g font-family="'Helvetica Neue', Arial, sans-serif" font-size="12" text-anchor="middle">
    <text x="230" y="230" fill="#1565c0">&#8804; pivot</text>
    <text x="390" y="230" fill="#ef6c00">pivot, in final place</text>
    <text x="550" y="230" fill="#2e7d32">&#8805; pivot</text>
  </g>

  <!-- recursion arrows -->
  <path d="M230,215 L230,260" stroke="#607d8b" stroke-width="1.5" marker-end="url(#qs-arrow)" fill="none"/>
  <path d="M550,215 L550,260" stroke="#607d8b" stroke-width="1.5" marker-end="url(#qs-arrow)" fill="none"/>

  <!-- recursion boxes: both sides are processed independently -->
  <rect x="130" y="268" width="200" height="66" rx="8" fill="#e3f2fd" stroke="#1565c0" stroke-width="1.5" stroke-dasharray="4,3"/>
  <text x="230" y="292" text-anchor="middle" font-size="12.5" fill="#1565c0">Quicksort recurses</text>
  <text x="230" y="308" text-anchor="middle" font-size="12.5" fill="#1565c0">on the left partition</text>
  <text x="230" y="326" text-anchor="middle" font-size="14" font-family="'SFMono-Regular', Menlo, Consolas, monospace" fill="#263238">[1, 3, 2]</text>

  <rect x="450" y="268" width="200" height="66" rx="8" fill="#e8f5e9" stroke="#2e7d32" stroke-width="1.5" stroke-dasharray="4,3"/>
  <text x="550" y="292" text-anchor="middle" font-size="12.5" fill="#2e7d32">Quicksort recurses</text>
  <text x="550" y="308" text-anchor="middle" font-size="12.5" fill="#2e7d32">on the right partition</text>
  <text x="550" y="326" text-anchor="middle" font-size="14" font-family="'SFMono-Regular', Menlo, Consolas, monospace" fill="#263238">[9, 8, 7]</text>

  <text x="390" y="380" text-anchor="middle" font-size="12.5" fill="#78909c">Both partitions are sorted independently; sub-arrays of 7 elements or fewer use straight insertion instead.</text>
</svg>
